<?xml version="1.0" encoding="UTF-8" standalone="no"?>
<!-- Created with Inkscape (http://www.inkscape.org/) -->

<svg
   width="142.782"
   height="139.82927"
   viewBox="0 0 37.777737 36.996494"
   version="1.1"
   id="svg1"
   xmlns="http://www.w3.org/2000/svg"
   xmlns:svg="http://www.w3.org/2000/svg">
  <defs
     id="defs1">
    <clipPath
       clipPathUnits="userSpaceOnUse"
       id="clipPath5">
      <path
         d="M 557.63623,473.31009 H 944.87964 V 864.71338 H 557.63623 Z"
         transform="matrix(0.70240053,0,0,0.70240053,-391.68399,-300.45327)"
         clip-rule="evenodd"
         id="path5" />
    </clipPath>
    <clipPath
       clipPathUnits="userSpaceOnUse"
       id="clipPath12">
      <path
         d="m 557.29083,424.33521 h 446.87497 v 440.625 H 557.29083 Z"
         transform="matrix(0.70240053,0,0,0.70240053,-391.68399,-300.45327)"
         clip-rule="evenodd"
         id="path12" />
    </clipPath>
    <clipPath
       clipPathUnits="userSpaceOnUse"
       id="clipPath10">
      <path
         d="M 557.63623,427.75204 H 1003.8348 V 713.91357 H 557.63623 Z"
         transform="matrix(0.70240053,0,0,0.70240053,-391.68399,-300.45327)"
         clip-rule="evenodd"
         id="path10" />
    </clipPath>
    <clipPath
       clipPathUnits="userSpaceOnUse"
       id="clipPath8">
      <path
         d="M 616.00751,473.31009 H 1003.8348 V 864.71338 H 616.00751 Z"
         transform="matrix(0.70240053,0,0,0.70240053,-391.68399,-300.45327)"
         clip-rule="evenodd"
         id="path8" />
    </clipPath>
  </defs>
  <g
     id="layer1"
     transform="translate(-81.147997,-115.73933)">
    <path
       id="path7"
       d="m 207.70313,141.62109 c -9.19922,0 -16.69922,-7.40234 -16.89844,-16.60156 -0.10156,-9.30078 7.30078,-17 16.59765,-17.09765 l 88.80079,-1.30079 c 9.5,-0.10156 17,7.30079 17.10156,16.59766 0.0976,9.30078 -7.30078,17 -16.60156,17.10156 l -88.80079,1.30078 c -0.0977,0 -0.0977,0 -0.19921,0 z m -133.000005,-34.19921 31.300785,0.5 c 5.10156,0.0977 9.60156,2.39843 12.60156,6 -0.10156,-0.30079 -0.30078,-0.5 -0.40234,-0.80079 L 72.605469,40.71875 c -5,-7.898437 -15.402344,-10.296875 -23.300781,-5.296875 -7.902344,5 -10.300782,15.398438 -5.300782,23.296875 z m 66.999995,112.59765 c -2.30078,-4.39844 -2.59765,-9.30078 -1.09765,-13.59765 -0.10156,0.0977 -0.20313,0.29687 -0.20313,0.39843 l -40.796871,75.19922 c -4.402344,8.19922 -1.402344,18.5 6.796871,22.90235 2.5,1.29687 5.30079,2 8,2 6,0 11.80079,-3.20313 14.90235,-8.80079 l 27.39843,-50.5 -15,-27.60156"
       style="display:inline;fill:#6457a4;fill-opacity:1;fill-rule:nonzero;stroke:none"
       transform="matrix(0.12053901,0,0,0.12053901,81.147995,115.73977)"
       clip-path="url(#clipPath8)" />
    <path
       id="path4"
       d="m 105.70313,141.62109 c -0.0977,0 -0.19922,0 -0.19922,0 L 16.605469,140.32031 C 7.304688,140.21875 -0.19531199,132.51953 0.00390625,123.21875 0.105469,114.01953 7.703125,106.62109 16.902344,106.62109 c 0.101562,0 0.203125,0 0.203125,0 l 88.898441,1.30079 c 9.30078,0.0977 16.80078,7.79687 16.60156,17.09765 -0.10156,9.19922 -7.70313,16.60156 -16.90234,16.60156 z m 93.30078,165.30079 c -6,0 -11.80078,-3.20313 -14.89844,-8.80079 l -42.40235,-78.10156 c -4.39843,-8.19922 -1.39843,-18.39844 6.80079,-22.89844 8.19921,-4.40234 18.39843,-1.40234 22.89843,6.80079 l 42.40235,78.09765 c 4.39844,8.19922 1.39844,18.40235 -6.80078,22.90235 -2.5,1.29687 -5.30078,2 -8,2 z m 8.39843,-199 31.20313,-0.5 30.79687,-48.800786 c 4.90235,-7.902344 2.60157,-18.300781 -5.29687,-23.300781 -7.90234,-4.898438 -18.30078,-2.601563 -23.30078,5.300781 l -45.60156,72.398436 c -0.19922,0.40235 -0.39844,0.80078 -0.59766,1.10156 3,-3.69921 7.59766,-6.10156 12.79687,-6.19921"
       style="fill:#62c2ac;fill-opacity:1;fill-rule:nonzero;stroke:none"
       transform="matrix(0.120539,0,0,0.120539,81.147994,115.73977)"
       clip-path="url(#clipPath5)" />
    <path
       id="path9"
       d="m 156.60547,111.82031 c -2.70313,0 -5.5,-0.69922 -8,-2 -8.20313,-4.39843 -11.20313,-14.699216 -6.80078,-22.898435 L 184.20313,8.8203125 c 4.40234,-8.19921851 14.69921,-11.1992185 22.90234,-6.8007815 8.19922,4.402344 11.19922,14.699219 6.79687,22.902344 l -42.39843,78.097655 c -3.10157,5.60156 -8.89844,8.80078 -14.89844,8.80078 z m -65.300782,61.10157 c 2.699218,-4.20313 6.800781,-6.80079 11.300782,-7.60157 -0.10156,0 -0.20313,0 -0.20313,0 0,0 -0.0977,0 -0.19921,0 l -85.597661,1.19922 c -9.300781,0.10156 -16.699219,7.80078 -16.60156275,17.10156 0.19921876,9.19922 7.69921875,16.59766 16.89843775,16.59766 0,0 0.101562,0 0.203125,0 l 57.5,-0.79687 z m 205.500002,-6.40235 -85.60156,-1.19922 c 0,0 -0.0977,0 -0.19922,0 0,0 0,0 -0.10157,0 4.40235,0.80078 8.60157,3.5 11.20313,7.60157 l 16.69922,26.5 57.5,0.79687 c 0,0 0.0976,0 0.19922,0 9.19922,0 16.80078,-7.39844 16.89843,-16.59766 0.20313,-9.30078 -7.29687,-17 -16.59765,-17.10156"
       style="fill:#fdb712;fill-opacity:1;fill-rule:nonzero;stroke:none"
       transform="matrix(0.12053901,0,0,0.12053901,81.147995,115.73977)"
       clip-path="url(#clipPath10)" />
    <path
       id="path11"
       d="m 58.203125,274.01953 c -3.097656,0 -6.199219,-0.80078 -9,-2.59765 -7.898437,-5 -10.199219,-15.40235 -5.300781,-23.30079 l 47.402344,-75.19921 c 5,-7.90235 15.398442,-10.20313 23.300782,-5.30079 7.89844,5 10.19922,15.39844 5.29687,23.30079 l -47.398434,75.19921 c -3.199218,5.09766 -8.699218,7.89844 -14.300781,7.89844 z m 197.000005,0 c -5.59766,0 -11.09766,-2.80078 -14.30079,-7.89844 l -47.39843,-75.19921 c -5,-7.90235 -2.60157,-18.30079 5.30078,-23.30079 7.89844,-5 18.30078,-2.60156 23.30078,5.30079 l 47.39844,75.19921 c 5,7.89844 2.60156,18.30079 -5.30078,23.30079 -2.80079,1.79687 -5.89844,2.59765 -9,2.59765 z M 141.80469,86.921875 156.70312,59.519531 129.20312,8.8203125 C 124.70313,0.62109399 114.50391,-2.378906 106.30469,2.019531 98.105469,6.5195313 95.105469,16.71875 99.503906,24.921875 l 40.800784,75.199215 c 0.19922,0.39844 0.39843,0.80079 0.69922,1.09766 -1.80079,-4.5 -1.69922,-9.699219 0.80078,-14.296875"
       style="display:inline;fill:#f0127a;fill-opacity:1;fill-rule:nonzero;stroke:none"
       transform="matrix(0.12053901,0,0,0.12053901,81.147995,115.73977)"
       clip-path="url(#clipPath12)" />
  </g>
</svg>
